<svg width="364" height="149" viewBox="0 0 364 149" fill="none" xmlns="http://www.w3.org/2000/svg">
<g filter="url(#filter0_d_397_867)">
<g clip-path="url(#clip0_397_867)">
<rect x="3" y="2" width="357.67" height="143" rx="10" fill="#2F5673"/>
<mask id="mask0_397_867" style="mask-type:luminance" maskUnits="userSpaceOnUse" x="90" y="-164" width="469" height="456">
<path d="M90 136.802L415.17 -164L558.731 -8.80929L233.561 291.992L90 136.802Z" fill="white"/>
</mask>
<g mask="url(#mask0_397_867)">
<path d="M415.525 -128.461C418.675 -99.1833 424.986 -68.4127 411.851 -40.4712C405.882 -27.8943 396.073 -17.4191 382.687 -12.7342C370.298 -8.34453 356.98 -8.91435 344.067 -9.33144C330.293 -9.84197 316.074 -10.5839 302.873 -5.82331C288.544 -0.644349 275.921 9.51587 268.044 22.4895C252.704 47.9048 257.086 82.4876 278.593 102.993C290.226 114.071 306.489 121.246 313.96 136.307C319.617 147.607 320.009 160.629 316.892 172.726C308.622 205.249 280.205 224.333 257.126 246.193C246.68 256.104 233.414 269.134 234.226 284.8C234.283 286.643 234.676 288.423 235.254 290.277L558.657 -8.88924L415.244 -163.92C413.725 -152.163 414.286 -140.188 415.525 -128.461Z" fill="#6EA2C2" fill-opacity="0.2"/>
</g>
<mask id="mask1_397_867" style="mask-type:luminance" maskUnits="userSpaceOnUse" x="-70" y="-58" width="458" height="448">
<path d="M-69.67 216.657L227.238 -58L387.122 114.836L90.2138 389.494L-69.67 216.657Z" fill="white"/>
</mask>
<g mask="url(#mask1_397_867)">
<path d="M233.188 86.6228C210.525 90.5223 189.462 102.051 173.264 118.361C157.055 134.681 145.335 155.977 141.877 178.893C138.402 202.267 141.878 228.357 127.803 248.873C120.803 259.172 110.511 267.367 98.7865 271.602C87.8378 275.389 76.0291 275.877 64.6274 273.607C38.5138 268.188 17.7104 250.477 0.0360026 231.371C-8.25995 222.403 -16.1717 211.772 -27.2008 206.082C-37.7159 200.781 -49.4774 202.11 -58.5796 209.493C-62.2173 212.416 -65.0995 215.678 -67.3228 219.195L90.1278 389.401L386.787 114.974C360.821 107.804 335.013 100.18 308.944 93.3754C284.468 87.1716 258.404 82.2836 233.188 86.6228Z" fill="#E8EFF6" fill-opacity="0.3"/>
</g>
</g>
</g>
<defs>
<filter id="filter0_d_397_867" x="0" y="0" width="363.67" height="149" filterUnits="userSpaceOnUse" color-interpolation-filters="sRGB">
<feFlood flood-opacity="0" result="BackgroundImageFix"/>
<feColorMatrix in="SourceAlpha" type="matrix" values="0 0 0 0 0 0 0 0 0 0 0 0 0 0 0 0 0 0 127 0" result="hardAlpha"/>
<feOffset dy="1"/>
<feGaussianBlur stdDeviation="1.5"/>
<feComposite in2="hardAlpha" operator="out"/>
<feColorMatrix type="matrix" values="0 0 0 0 0 0 0 0 0 0 0 0 0 0 0 0 0 0 0.15 0"/>
<feBlend mode="normal" in2="BackgroundImageFix" result="effect1_dropShadow_397_867"/>
<feBlend mode="normal" in="SourceGraphic" in2="effect1_dropShadow_397_867" result="shape"/>
</filter>
<clipPath id="clip0_397_867">
<rect x="3" y="2" width="357.67" height="143" rx="10" fill="white"/>
</clipPath>
</defs>
</svg>
